<?xml version="1.0" encoding="UTF-8" standalone="no"?>
<!DOCTYPE svg PUBLIC "-//W3C//DTD SVG 1.1//EN" "http://www.w3.org/Graphics/SVG/1.1/DTD/svg11.dtd">
<svg width="100%" height="100%" viewBox="0 0 400 400" version="1.1" xmlns="http://www.w3.org/2000/svg" xmlns:xlink="http://www.w3.org/1999/xlink" xml:space="preserve" xmlns:serif="http://www.serif.com/" style="fill-rule:evenodd;clip-rule:evenodd;stroke-linejoin:round;stroke-miterlimit:2;">
    <g id="Layer1">
        <path d="M4.539,199.798C7.378,181.088 14.408,158.182 24.402,142.636C31.837,131.07 41.735,116.357 51.26,106.691C55.908,101.973 69.388,89.717 77.061,85.045C89.893,77.23 103.793,74.276 112.426,75.762C120.911,77.221 124.822,78.203 132.861,83.328C137.966,86.583 145.811,93.883 151.527,99.366C163.452,110.804 171.067,125.211 179.66,141.517C189.959,161.063 198.174,183.732 204.501,203.601C209.13,218.138 219.19,254.484 225.842,268.222C230.753,278.364 235.888,288.578 244.209,298.151C249.772,304.551 256.963,310.193 264.804,316.105C273.518,322.677 287.188,326.782 298.73,326.361C303.102,326.201 319.997,324.299 330.897,317.576C342.471,310.437 354.461,298.586 360.204,292.083C368.878,282.262 376.558,264.328 379.087,256.128C386.515,232.051 390.267,222.804 396.852,205.682" style="fill:none;stroke:rgb(171,0,0);stroke-width:10px;stroke-linecap:round;stroke-miterlimit:1.5;"/>
    </g>
</svg>
